<?xml version="1.0"?>
<svg width="512.021" height="512.021" xmlns="http://www.w3.org/2000/svg" xmlns:svg="http://www.w3.org/2000/svg" enable-background="new 0 0 512.021 512.021" version="1.1" xml:space="preserve">

 <g class="layer">
  <title>Layer 1</title>
  <g id="svg_1">
   <path d="m301.26,256.01l201.38,-201.36c12.51,-12.51 12.51,-32.77 0,-45.27c-12.5,-12.5 -32.76,-12.5 -45.26,0l0,0l-201.37,201.38l-201.36,-201.38c-12.51,-12.5 -32.77,-12.5 -45.27,0s-12.5,32.77 0,45.27l201.38,201.36l-201.38,201.37c-12.5,12.5 -12.5,32.76 0,45.26s32.77,12.51 45.27,0l201.36,-201.38l201.37,201.38c12.5,12.51 32.76,12.51 45.26,0c12.5,-12.5 12.5,-32.76 0,-45.26l-201.38,-201.37z" fill="#b16286" id="svg_2"/>
  </g>
 </g>
</svg>